<?xml version="1.0" standalone="no"?><!DOCTYPE svg PUBLIC "-//W3C//DTD SVG 1.1//EN" "http://www.w3.org/Graphics/SVG/1.1/DTD/svg11.dtd"><svg t="1591756731482" class="icon" viewBox="0 0 1025 1024" version="1.1" xmlns="http://www.w3.org/2000/svg" p-id="38863" width="32.03125" height="32" xmlns:xlink="http://www.w3.org/1999/xlink"><defs><style type="text/css"></style></defs><path d="M 986.336 318.825 a 510.773 510.773 0 0 0 -834.73 -168.986 a 510.934 510.934 0 1 0 722.559 722.559 a 511.443 511.443 0 0 0 112.171 -553.573 Z M 192.716 190.978 a 453.799 453.799 0 0 1 477.399 -104.305 L 384.835 374.531 a 21.6768 21.6768 0 0 0 -4.71994 7.15275 A 185.01 185.01 0 0 0 328.196 526.181 L 108.223 308.146 A 451.06 451.06 0 0 1 192.716 190.978 Z m 416.171 216.01 a 21.735 21.735 0 0 0 3.53995 4.63253 l 10.8092 10.7073 A 141.671 141.671 0 0 1 412.689 611.242 a 137.049 137.049 0 0 1 -4.70537 -4.95302 a 21.1378 21.1378 0 0 0 -3.43798 -4.37032 l -2.27256 -2.258 a 141.642 141.642 0 0 1 206.614 -192.673 Z M 89.3874 351.077 l 280.312 277.806 q 5.65227 6.83226 12.0475 13.2712 a 184.821 184.821 0 0 0 131.109 54.1919 c 5.56487 0 11.1297 -0.247651 16.6655 -0.742954 L 310.846 916.217 A 451.118 451.118 0 0 1 192.716 831.171 C 63.1655 701.591 28.7129 512.371 89.3874 351.077 Z m 743.507 480.094 c -129.288 129.288 -317.97 163.858 -479.03 103.722 l 285.804 -288.441 a 19.7538 19.7538 0 0 0 1.57331 -1.76269 c 0.888631 -0.859495 1.77726 -1.70442 2.65132 -2.57849 a 184.194 184.194 0 0 0 54.2793 -131.109 q 0 -7.58978 -0.611844 -15.0776 L 917.489 713.959 a 450.769 450.769 0 0 1 -84.5947 117.212 Z m 103.431 -160.143 L 655.635 392.916 q -5.5503 -6.68658 -11.7416 -12.907 a 184.209 184.209 0 0 0 -131.109 -54.2939 a 187.355 187.355 0 0 0 -19.0254 0.976037 l 219.506 -221.429 a 450.885 450.885 0 0 1 119.601 85.8038 C 962.46 320.631 996.854 509.749 936.267 671.028 Z" fill="#8a8a8a" p-id="38864"></path></svg>