<?xml version="1.0" standalone="no"?><!DOCTYPE svg PUBLIC "-//W3C//DTD SVG 1.1//EN" "http://www.w3.org/Graphics/SVG/1.1/DTD/svg11.dtd"><svg t="1591753148991" class="icon" viewBox="0 0 1024 1024" version="1.1" xmlns="http://www.w3.org/2000/svg" p-id="9330" width="32" height="32" xmlns:xlink="http://www.w3.org/1999/xlink"><defs><style type="text/css"></style></defs><path d="M511.999535 0C229.236155 0 0 229.236155 0 511.999535c0 68.072665 13.311988 134.376605 38.865419 195.979458l5.701813 13.218897c9.774537 21.876344 21.108344 42.984688 33.861788 63.255215l2.909088 4.445087-0.535272 3.793451a200.959817 200.959817 0 0 1-5.725086 23.109797c-8.471265 28.20652-24.366523 68.095938-47.615957 119.063165-17.850166 39.191237 22.481434 79.522837 61.672671 61.672671l18.594893-8.378174c42.146871-18.711256 75.775931-31.813789 100.468272-39.237783l4.56145-1.326544c7.098175-2.024725 13.102534-3.444361 17.919984-4.282178l4.398541-0.674908-7.586902-4.887269A510.579899 510.579899 0 0 0 511.999535 1023.999069c282.763379 0 511.999535-229.236155 511.999534-511.999534S794.762914 0 511.999535 0z m0 93.090824c231.353971 0 418.90871 187.554739 418.90871 418.908711s-187.554739 418.90871-418.90871 418.90871a417.512348 417.512348 0 0 1-222.859434-64.116306l-12.450898-8.052356c-23.272706-13.963624-55.389041-12.47417-104.703905 3.467633l-15.453077 5.236359 0.558545-1.559271c20.945436-59.275582 23.621797-95.650822 6.516358-121.180981A417.512348 417.512348 0 0 1 93.090824 511.999535c0-231.330699 187.554739-418.885437 418.908711-418.885438z" fill="#8a8a8a" p-id="9331"></path><path d="M372.363298 488.726828m-69.818118 0a69.818118 69.818118 0 1 0 139.636236 0 69.818118 69.818118 0 1 0-139.636236 0Z" fill="#8a8a8a" p-id="9332"></path><path d="M651.635771 488.726828m-69.818118 0a69.818118 69.818118 0 1 0 139.636237 0 69.818118 69.818118 0 1 0-139.636237 0Z" fill="#8a8a8a" p-id="9333"></path></svg>