<?xml version="1.0" standalone="no"?><!DOCTYPE svg PUBLIC "-//W3C//DTD SVG 1.1//EN" "http://www.w3.org/Graphics/SVG/1.1/DTD/svg11.dtd"><svg t="1591754479212" class="icon" viewBox="0 0 1024 1024" version="1.1" xmlns="http://www.w3.org/2000/svg" p-id="13714" width="32" height="32" xmlns:xlink="http://www.w3.org/1999/xlink"><defs><style type="text/css"></style></defs><path d="M512.009485 512.7604c-141.371672 0-256.388039-115.016367-256.388039-256.341004S370.637814 0.031357 512.009485 0.031357s256.388039 114.969332 256.38804 256.388039-115.016367 256.341004-256.38804 256.341004z m0-443.791343a187.403304 187.403304 0 1 0 187.403304 187.450339A187.607123 187.607123 0 0 0 512.009485 68.984735zM512.009485 1024c-137.373693 0-269.996846-10.034143-394.169369-29.788863a105.860212 105.860212 0 0 1-85.854638-131.03964 496.298134 496.298134 0 0 1 213.915392-294.64321 92.627685 92.627685 0 0 1 121.209315 19.331404 187.418982 187.418982 0 0 0 289.657496 0 92.627685 92.627685 0 0 1 121.209315-19.331404 496.313812 496.313812 0 0 1 214.040819 294.64321 105.860212 105.860212 0 0 1-85.838961 131.023962c-124.172523 19.770398-256.795676 29.804541-394.169369 29.804541z m-216.361214-400.958094a23.313705 23.313705 0 0 0-12.542679 3.653055A425.337927 425.337927 0 0 0 98.806601 880.292254a36.891155 36.891155 0 0 0 29.882933 45.749422c120.59786 19.221656 249.567957 28.95791 383.319951 28.957911s262.722092-9.751933 383.319952-28.957911a36.891155 36.891155 0 0 0 29.867255-45.749422 425.337927 425.337927 0 0 0-184.236278-253.597293 23.517523 23.517523 0 0 0-30.839312 4.985715 256.403717 256.403717 0 0 1-396.223233 0 23.658628 23.658628 0 0 0-18.280955-8.654448z" fill="#b371cb" p-id="13715"></path></svg>